<?xml version="1.0" encoding="UTF-8" standalone="no"?><svg xmlnsSvg="http://www.w3.org/2000/svg" xmlns="http://www.w3.org/2000/svg" xmlnsXlink="http://www.w3.org/1999/xlink" version="1.0" width="64px" height="64px" viewBox="0 0 128 128" xmlSpace="preserve"><rect x="0" y="0" width="100%" height="100%" fill="#FFFFFF" /><g><path d="M59.6 0h8v40h-8V0z" fill="#7e22ce"/><path d="M59.6 0h8v40h-8V0z" fill="#e5d3f5" transform="rotate(30 64 64)"/><path d="M59.6 0h8v40h-8V0z" fill="#e5d3f5" transform="rotate(60 64 64)"/><path d="M59.6 0h8v40h-8V0z" fill="#e5d3f5" transform="rotate(90 64 64)"/><path d="M59.6 0h8v40h-8V0z" fill="#e5d3f5" transform="rotate(120 64 64)"/><path d="M59.6 0h8v40h-8V0z" fill="#d8bcf0" transform="rotate(150 64 64)"/><path d="M59.6 0h8v40h-8V0z" fill="#cba7eb" transform="rotate(180 64 64)"/><path d="M59.6 0h8v40h-8V0z" fill="#be90e6" transform="rotate(210 64 64)"/><path d="M59.6 0h8v40h-8V0z" fill="#b27ae2" transform="rotate(240 64 64)"/><path d="M59.6 0h8v40h-8V0z" fill="#a464dd" transform="rotate(270 64 64)"/><path d="M59.6 0h8v40h-8V0z" fill="#984ed8" transform="rotate(300 64 64)"/><path d="M59.6 0h8v40h-8V0z" fill="#8b38d3" transform="rotate(330 64 64)"/><animateTransform attributeName="transform" type="rotate" values="0 64 64;30 64 64;60 64 64;90 64 64;120 64 64;150 64 64;180 64 64;210 64 64;240 64 64;270 64 64;300 64 64;330 64 64" calcMode="discrete" dur="1080ms" repeatCount="indefinite"></animateTransform></g></svg>